<svg xmlns="http://www.w3.org/2000/svg" width="197" height="15" viewBox="0 0 197 15"><path fill="#f2f2f2" d="M10.94 15L0 0h21.88L10.94 15"/><path fill="#f2f2f2" d="M30.64 15L19.7 0h21.87L30.64 15"/><path fill="#f2f2f2" d="M49.55 15L38.6 0h21.88L49.55 15"/><path fill="#f2f2f2" d="M69.24 15L58.31 0h21.87L69.24 15"/><path fill="#f2f2f2" d="M88.16 15L77.22 0H99.1L88.16 15"/><path fill="#f2f2f2" d="M107.85 15L96.91 0h21.88l-10.94 15"/><path fill="#f2f2f2" d="M126.76 15L115.83 0h21.87l-10.94 15"/><path fill="#f2f2f2" d="M146.46 15L135.52 0h21.88l-10.94 15"/><path fill="#f2f2f2" d="M166.36 15L155.42 0h21.88l-10.94 15"/><path fill="#f2f2f2" d="M186.06 15L175.12 0H197l-10.94 15"/></svg>