<svg xmlns="http://www.w3.org/2000/svg" width="19" height="16" viewBox="0 0 19 16"><path fill="#dadada" d="M17.24 16H1.76C.8 16 0 15.23 0 14.28V2.72C0 1.77.8 1 1.76 1h15.48C18.2 1 19 1.77 19 2.72v11.56c0 .95-.79 1.72-1.76 1.72zM14.82 4.19v-.04c0-.5-.41-.9-.92-.9h-.18l-.77-.03H8.2c-.66 0-1.2.52-1.2 1.17 0 .65.54 1.17 1.2 1.17h2.64l-.06.07-.11.1L7.9 8.44l-.09.08-3.29 3.25c-.46.46-.46 1.2 0 1.66a1.2 1.2 0 0 0 1.68 0l2.75-2.71.09-.09 3.29-3.25c.04-.03.07-.08.1-.12V9.8c0 .64.54 1.17 1.2 1.17.65 0 1.18-.53 1.18-1.17z"/></svg>