<svg xmlns="http://www.w3.org/2000/svg" width="137" height="105" viewBox="0 0 137 105"><path fill="#292929" d="M137 26.48c0-.4-.23-.92-.67-1.54-.45-.63-.86-.94-1.25-.94-.48-.28-.8-.42-.95-.42-.54 0-1.18.53-1.92 1.58-.74 1.06-1.1 1.88-1.1 2.46 0 .44.21.91.65 1.44.43.52.86.78 1.3.78.28 0 .77-.16 1.49-.46.71-.3 1.17-.56 1.38-.76.25 0 .5-.28.72-.84.23-.56.35-1 .35-1.3zm-6.81-18.46c.2-1.12.3-1.77.3-1.95 0-.53-.18-.8-.53-.8-.36 0-1.02-.24-2-.72a15.2 15.2 0 0 0-1.45 1.22 189.88 189.88 0 0 1-1.6 2.06c-1.74 1.58-2.6 2.78-2.6 3.62 0 .36.24.54.72.54.28 0 .65-.14 1.11-.42.46-.28.73-.42.8-.42.1 0 .16.04.16.11a14.65 14.65 0 0 0-.46 2.1c-.33 2.06-.59 3.6-.77 4.62a31.44 31.44 0 0 0-.34 1.79c0 .58-.02.91-.04.99a97.54 97.54 0 0 0-1.15 6.03c-.08.48-.11.82-.11 1.03 0 .45.2.73.6.83.21.06.66.31 1.35.77.61.38 1.07.57 1.38.57.69 0 1.1-.4 1.26-1.22l.15-2.06c.64-3.74 1.12-6.54 1.46-8.4l.84-5.18c.4-2.29.71-4 .92-5.11zm-20.95 81.27a7.13 7.13 0 0 0-.01-1.62 5.19 5.19 0 0 0-.5-1.67 3.78 3.78 0 0 0-2.86-2.15l-.1-.01h-.11a4.98 4.98 0 0 0-.62.01 3.8 3.8 0 0 0-1.97.8c-.7.57-.98 1.23-1.22 1.89-.12.35-.33.57-.4 1.26V88.01c.2 4.41-2.68 7.22-6 9.28a1.6 1.6 0 0 0-.51.92 3.15 3.15 0 0 0-.07.97 4.33 4.33 0 0 0 1.31 2.97 3.6 3.6 0 0 0 2.41.97c.84 0 1.7-.26 2.44-.78 4.87-2.65 7.49-6.96 8.2-13.05zm.04-16.5V57.49c0-1.73-1.69-3.13-3.77-3.13-2.07 0-3.76 1.4-3.76 3.13V72.8c0 1.72 1.69 3.12 3.76 3.12 2.08 0 3.77-1.4 3.77-3.12zm-.15-29.7c.06-5.12.66-10.33-1.82-15.45-.93-1.65-3.32-3.84-5.5-2.67a4.27 4.27 0 0 0-2.25 4.05c.04.31.25.76.31.94 2.19 2.85 1.88 7.76 1.87 13.01 0 1.8 1.7 3.27 3.74 3.25 2.07 0 3.63-1.39 3.65-3.12zM93.92 22.47c0-2.08-1.4-3.76-3.14-3.76H75.42c-1.73 0-3.13 1.68-3.13 3.76 0 2.07 1.4 3.75 3.13 3.75h15.36c1.73 0 3.14-1.68 3.14-3.75zm-29.47 0c0-2.08-1.4-3.76-3.14-3.76H45.95c-1.73 0-3.13 1.68-3.13 3.76 0 2.07 1.4 3.75 3.13 3.75h15.36c1.74 0 3.14-1.68 3.14-3.75zM56.15 6.3a.46.46 0 0 0 .04-.2.38.38 0 0 0-.06-.2 7.74 7.74 0 0 0-2.56-1.93c-.6-.3-1.24-.57-1.87-.73a5.97 5.97 0 0 0-1.82-.15c-1.28.08-2.62.4-3.6.86-.29.14-.53.3-.75.46l-.04-.1c-5.73 3.4-12.74 7.43-22.14 14.04a227.9 227.9 0 0 1-7.24-4.38l.15-1.5a17.75 17.75 0 0 0-.01-3.6c-.13-1.3-.44-2.62-1.01-3.75a7.35 7.35 0 0 0-5-3.92A8.04 8.04 0 0 0 7.2 1.1c-1 .16-2 .53-2.89 1.14A7.75 7.75 0 0 0 1.1 7.49a8.4 8.4 0 0 0 .12 3.2 7.27 7.27 0 0 0 1.51 3.05c1.52 1.88 4.24 2.76 6.99 2.96a20.05 20.05 0 0 0 3.62-.07c.08 0 .14-.02.21-.03 2.37 2.17 4.18 3.8 5.61 4.92a112.47 112.47 0 0 0-5.9 5.19 16.08 16.08 0 0 0-1.6-.1c-.6-.02-1.27 0-1.94.05-2.75.19-5.47 1.08-6.99 2.95a7.26 7.26 0 0 0-1.51 3.04 8.21 8.21 0 0 0-.12 3.2 7.76 7.76 0 0 0 3.22 5.26 7.12 7.12 0 0 0 4.4 1.23c.51-.02 1.02-.08 1.51-.2a7.35 7.35 0 0 0 5-3.92c.58-1.13.9-2.44 1.02-3.75.07-.64.09-1.29.09-1.9 0-.6-.04-1.18-.08-1.7l-.18-1.8c2.77-1.72 5.23-3.23 7.1-4.3 9.32 6.56 16.3 10.56 22 13.94l.03-.06c.25.27.62.53 1.08.74a10.3 10.3 0 0 0 4.47.87c.3-.03.62-.08.94-.16a9.05 9.05 0 0 0 1.87-.73c1.2-.61 2.2-1.4 2.55-1.92a.38.38 0 0 0 .07-.2.46.46 0 0 0-.05-.21c-.07-.15-.2-.3-.4-.47-.4-.32-1-.7-1.74-1.1-1.45-.82-3.45-1.77-5.1-2.84-.31-.18-.58-.27-.83-.32l.04-.07A850.4 850.4 0 0 0 29.9 21.6a786.17 786.17 0 0 0 18.08-10.54c.27-.04.57-.14.91-.34C50.55 9.65 52.55 8.7 54 7.88c.74-.4 1.35-.78 1.74-1.1.2-.17.33-.32.4-.46zM13.01 34.35l.02.3a4.46 4.46 0 0 1-4.55 4.38 4.46 4.46 0 0 1-4.54-4.38 4.46 4.46 0 0 1 4.54-4.38l.25.01 4.34-.32c-.07 1.07.17 2.23-.06 4.39zm.06-20.96l-4.34-.33-.25.02A4.46 4.46 0 0 1 3.95 8.7a4.46 4.46 0 0 1 4.54-4.38 4.46 4.46 0 0 1 4.55 4.38c0 .1 0 .2-.02.3.23 2.16-.01 3.32.06 4.39zm3.4 37.52v15.32c0 1.73 1.7 3.13 3.77 3.13 2.08 0 3.76-1.4 3.76-3.13V50.91c0-1.73-1.68-3.13-3.76-3.13s-3.76 1.4-3.76 3.13zm.16 29.39c-.07 5.12-.66 10.33 1.81 15.46.93 1.65 3.32 3.83 5.51 2.66a4.28 4.28 0 0 0 2.25-4.05c-.04-.3-.26-.76-.32-.94-2.18-2.85-1.88-7.76-1.87-13.01 0-1.8-1.69-3.27-3.73-3.25-2.07 0-3.64 1.4-3.65 3.13zm16.46 20.95c0 2.07 1.4 3.75 3.14 3.75H51.6c1.73 0 3.13-1.68 3.13-3.75 0-2.07-1.4-3.75-3.13-3.75H36.24c-1.74 0-3.14 1.68-3.14 3.75zm43.63-35.8c-7.84 0-9.02 7.2-9.02 10.73 0 3.6 1.01 10.7 9.02 10.7 7.61 0 9.03-6.45 9.03-10.7 0-3.62-1.05-10.73-9.03-10.73zm3.44 10.73c0 .99.17 6.62-3.44 6.62-3.7 0-3.43-5.97-3.43-6.62 0-.88-.27-6.63 3.43-6.63 3.74 0 3.44 5.95 3.44 6.63zM50.09 67.5c7.6 0 9.02-6.46 9.02-10.7 0-3.63-1.04-10.73-9.02-10.73-7.85 0-9.03 7.19-9.03 10.72 0 3.6 1.01 10.7 9.03 10.7zm0-4.08c-3.7 0-3.44-5.97-3.44-6.63 0-.87-.27-6.62 3.44-6.62 3.73 0 3.43 5.94 3.43 6.62 0 1 .17 6.63-3.43 6.63zm22.7-17.14L49.5 83.92c-.82 1.3-.41 3.02.9 3.83 1.32.8 3.04.4 3.85-.9L77.56 49.2c.8-1.3.4-3.02-.91-3.83a2.8 2.8 0 0 0-3.85.9zM67.6 97.5h15.35c1.74 0 3.14 1.68 3.14 3.75 0 2.07-1.4 3.75-3.14 3.75H67.58c-1.73 0-3.13-1.68-3.13-3.75 0-2.07 1.4-3.75 3.13-3.75z"/></svg>