<svg xmlns="http://www.w3.org/2000/svg" width="125" height="102" viewBox="0 0 125 102"><path fill="#292929" d="M123.66 24.22c-.23.56-.48.84-.73.84-.2.2-.67.46-1.38.77a4.7 4.7 0 0 1-1.5.46c-.43 0-.87-.27-1.3-.79-.43-.52-.65-1-.65-1.44 0-.58.37-1.4 1.11-2.47.74-1.06 1.38-1.59 1.92-1.59.15 0 .47.14.96.42.38 0 .8.32 1.24.94.45.63.67 1.14.67 1.55 0 .31-.11.75-.34 1.3zm-7.78-12.53a1413.5 1413.5 0 0 1-3.11 4.1c-.8.87-1.59 1.75-2.38 2.64-1.22 1.38-1.84 2.25-1.84 2.6 0 .19.14.28.43.28.25 0 .63-.03 1.13-.08.5-.05.87-.08 1.13-.08 3.45 0 5.17.9 5.17 2.68 0 .2-.01.41-.04.62-.12.74-1.57 1.1-4.33 1.1h-3.1c-.2 0-.51-.02-.92-.07a7.95 7.95 0 0 0-2.57.06c-.74.09-1.3.13-1.69.13-.25 0-.5-.2-.75-.61a2.1 2.1 0 0 1-.36-1v-.3c.02-.1.04-.2.04-.27 0-.18-.05-.44-.16-.79-.1-.34-.15-.62-.15-.82 0-.59.97-1.92 2.91-3.99l3.8-4.02a65.33 65.33 0 0 0 3.72-5.29c1-1.63 1.5-2.7 1.5-3.18 0-.12-.12-.19-.35-.19-1.15 0-3.06 1.1-5.71 3.3l-1.73 1.8c-.92.94-1.5 1.42-1.72 1.42-.2 0-.53-.51-.96-1.54a6.18 6.18 0 0 1-.65-1.84c0-.33 1.43-1.68 4.29-4.06a18.47 18.47 0 0 1 3.72-2.5 7.19 7.19 0 0 1 3.06-.8c.6 0 1.26.5 2 1.46.59.75 1.05 1.51 1.38 2.3.23.54.34 1.08.34 1.61 0 .1-.02.32-.07.65a12.21 12.21 0 0 1-2.03 4.68zm-28.43 5.2h-6.07l-9.26 56.4a4.24 4.24 0 0 1-4.66 3.54c-.13.02-.26.05-.4.05h-28.1c-1.94 0-3.52-1.7-3.52-3.77 0-2.09 1.58-3.77 3.52-3.77h25.2l1.23-7.54H16.13a3.65 3.65 0 0 1-3.55-3.44c-.05-.1-.12-.19-.16-.3L1 28.49a2.9 2.9 0 0 1-.17-.79 3.74 3.74 0 0 1 2.94-6.09h68.07l.15.02 1.43-8.69v-.02c.11-1.98 1.63-3.56 3.5-3.56h10.54c1.94 0 3.5 1.69 3.5 3.77s-1.56 3.77-3.5 3.77zM9.32 29.14l9.71 25.12h47.6l4.12-25.12zM24 79.07a11.46 11.46 0 1 1-.01 22.92 11.46 11.46 0 0 1 .01-22.92zm-.15 15.4a3.77 3.77 0 1 0 0-7.54 3.77 3.77 0 0 0 0 7.53zm45.32-15.4a11.46 11.46 0 1 1-.01 22.91 11.46 11.46 0 0 1 .01-22.9zM69 94.47a3.77 3.77 0 1 0 0-7.54 3.77 3.77 0 0 0 0 7.53z"/></svg>