<svg xmlns="http://www.w3.org/2000/svg" width="123" height="102" viewBox="0 0 123 102"><path fill="#292929" d="M122.65 24.1c-.23.57-.47.85-.73.85-.2.2-.66.46-1.37.76-.72.3-1.21.46-1.5.46-.43 0-.86-.26-1.3-.78-.43-.52-.65-1-.65-1.43 0-.59.37-1.4 1.11-2.46.74-1.06 1.38-1.59 1.92-1.59.15 0 .47.14.95.42.39 0 .8.32 1.25.94.44.62.67 1.14.67 1.54 0 .3-.12.74-.35 1.3zm-11.51-11.36l1.87 1.34c.46.33.88.87 1.26 1.64.39.76.58 1.43.58 2.02 0 1.96-.96 3.71-2.87 5.26a16.14 16.14 0 0 1-5.51 2.9c-1.4.46-2.44.69-3.1.69-.69 0-1.34-.29-1.95-.86a2.55 2.55 0 0 1-.92-1.89c0-.96.73-1.45 2.18-1.45h.27c.13.03.22.04.27.04.94 0 2.4-.58 4.36-1.75 2.06-1.22 3.1-2.25 3.1-3.1 0-.5-.4-.9-1.19-1.18-.61-.2-1.22-.3-1.84-.3-1.9 0-3.1.27-3.55.8-.18 0-.46-.18-.84-.53-.39-.36-.58-.63-.58-.8 0-.08.07-.2.21-.39.14-.17.21-.3.21-.38-.1-.12-.15-.34-.15-.65 0-.73.17-1.28.5-1.64.28-.27.74-.52 1.37-.72a11 11 0 0 0 1.46-.57c4.3-2.72 6.46-4.58 6.46-5.57 0-.2-.5-.3-1.53-.3-1.91 0-3.66.43-5.24 1.29-.1.08-.25.15-.46.23a5.9 5.9 0 0 1-1.03-3.13c0-.18.01-.33.04-.46.18-.81 2.08-1.52 5.7-2.13l1-.16c1.17 0 2 .2 2.52.62 1.76 1.42 2.64 2.82 2.64 4.2 0 1.21-.87 2.75-2.6 4.6l-2.64 2.33zM89.79 56.67h-3.15v41.58c0 .09-.02.17-.04.25.02.13.04.25.04.37 0 1.73-1.21 3.13-2.7 3.13H8.98c-1.5 0-2.7-1.4-2.7-3.13l.01-.18-.01-.13v-41.9H3.12A3.12 3.12 0 0 1 0 53.55V36.66c0-.27.05-.53.11-.78a3.12 3.12 0 0 1 3.01-3.9l20.4-.01c-1.94-2.03-2.86-5-3-8.06A14.5 14.5 0 0 1 35.55 9.18a15.4 15.4 0 0 1 2.2.19c.95.16 1.87.41 2.76.76a14.46 14.46 0 0 1 6.67 5.43c2.2-2.88 5.74-4.62 10.03-4.42a13.5 13.5 0 0 1 13.25 13.4c-.06 2.74-.87 5.56-2.57 7.43h21.9c1.72 0 3.11 1.4 3.11 3.13l-.03.31c.01.1.03.2.03.31V52.6c0 .16-.02.32-.04.47.02.16.04.31.04.47 0 1.73-1.4 3.13-3.12 3.13zM12.56 95.75h30.76V56.67H12.56zM6.28 38.22v12.2h37.04v-12.2zm37.35-13.65h-.05a8.3 8.3 0 0 0-8.27-9.17A8.3 8.3 0 0 0 27 23.7a8.3 8.3 0 0 0 9.2 8.23v.05h7.43zm5.97 71.18h30.76V56.67H49.6zm7.37-78.47a7.36 7.36 0 0 0-7.33 8.12h-.04v6.57h6.59v-.04c.26.02.52.04.78.04a7.36 7.36 0 0 0 7.38-7.35c0-4.05-3.3-7.34-7.38-7.34zm29.67 20.94H49.6v12.2h37.04z"/></svg>