<svg xmlns="http://www.w3.org/2000/svg" width="51" height="49" viewBox="0 0 51 49"><path fill="#fff" d="M26 8c12.7 0 23 9.18 23 20.5S38.7 49 26 49 3 39.82 3 28.5 13.3 8 26 8z"/><path fill="#838282" d="M44.16 41.59a11.64 11.64 0 0 0-10.85-7.22H19.7c-5.24 0-9.67 3.36-11.13 7.98A24.42 24.42 0 0 1 .99 24.67C1 11.05 12.2 0 26 0 39.8 0 51 11.05 51 24.67c0 6.56-2.6 12.5-6.83 16.92zM26.51 10.46c-5.76 0-10.43 4.61-10.43 10.3 0 5.68 4.67 10.29 10.43 10.29s10.43-4.6 10.43-10.3c0-5.68-4.67-10.29-10.43-10.29z"/></svg>