<svg xmlns="http://www.w3.org/2000/svg" width="35" height="36" viewBox="0 0 35 36"><path fill="#ec8129" d="M17.53.95c9.62 0 17.41 7.74 17.41 17.29 0 9.55-7.8 17.29-17.4 17.29-9.62 0-17.41-7.74-17.41-17.3C.13 8.7 7.93.96 17.53.96z"/><path fill="#fff" d="M15.5 10.64a3.1 3.1 0 0 1 5.31 2.18c0 .85-.34 1.62-.9 2.18a3.1 3.1 0 0 1-5.31-2.18c0-.85.34-1.63.9-2.18zm2.2 7.65a5.51 5.51 0 0 0 5.51-5.47 5.51 5.51 0 0 0-11 0 5.5 5.5 0 0 0 5.5 5.47zm5.83 2.66a10.9 10.9 0 0 1-4.67 1.79l3.87 3.58c.52.5.56 1.3.07 1.83a1.3 1.3 0 0 1-1.84.06l-3.36-3.1-3.36 3.1a1.3 1.3 0 0 1-1.84-.06 1.29 1.29 0 0 1 .07-1.83l3.9-3.6a9.89 9.89 0 0 1-4.56-1.89 1.28 1.28 0 0 1-.18-1.81 1.3 1.3 0 0 1 1.83-.18c0 .01 3.76 3.16 8.64-.04.6-.39 1.4-.23 1.8.37.4.6.22 1.4-.37 1.78z"/></svg>