<svg xmlns="http://www.w3.org/2000/svg" width="35" height="35" viewBox="0 0 35 35"><path fill="#2e5e87" d="M17.6.42C27.2.42 35 8.16 35 17.71 35 27.26 27.2 35 17.6 35 7.97 35 .18 27.26.18 17.71.19 8.16 7.98.42 17.59.42z"/><path fill="#fff" d="M26.1 26.27c-.34.33-.8.54-1.3.54H11.2a1.84 1.84 0 0 1-1.83-1.83v-13.5a1.84 1.84 0 0 1 1.84-1.82h13.58a1.83 1.83 0 0 1 1.84 1.83v13.5c0 .5-.2.95-.54 1.28zm-12.78-9.4h-2.2v7.7c0 .13.06.25.15.34.1.1.22.15.36.15h12.74a.5.5 0 0 0 .5-.5v-7.68h-2.2a5 5 0 0 1-1.1 5.46 5.06 5.06 0 0 1-8.25-5.46zM18 15.49a3.33 3.33 0 0 0-3.33 3.3 3.33 3.33 0 0 0 6.66 0 3.33 3.33 0 0 0-3.33-3.3zm7.46-2.74c0-.79-.64-1.42-1.43-1.42H22.6c-.79 0-1.43.63-1.43 1.42v.94c0 .79.64 1.43 1.43 1.43h1.43c.8 0 1.43-.64 1.43-1.43z"/></svg>