<svg xmlns="http://www.w3.org/2000/svg" width="25" height="24" viewBox="0 0 25 24"><path fill="#fff" d="M23.62 23.15l-.58.53c-.44.4-1.09.41-1.44.02l-1.87-2.04c-.04-.03-.06-.07-.09-.11l-.06-.06-1.4-1.52-.07-.06-1.87-2.04a.9.9 0 0 1-.1-.14l-.71-.78a9.28 9.28 0 0 1-14.4-8.3A9.23 9.23 0 0 1 10.84.04a9.28 9.28 0 0 1 6.74 14.9l1.16 1.27.1.14.96 1.05.07.06 1.87 2.04.09.12.06.05 1.87 2.04c.36.4.3 1.04-.15 1.45zM10.6 2.92a6.36 6.36 0 0 0-6.77 5.94 6.4 6.4 0 0 0 5.96 6.79 6.36 6.36 0 0 0 6.78-5.95 6.4 6.4 0 0 0-5.97-6.78z"/></svg>