<svg xmlns="http://www.w3.org/2000/svg" width="35" height="35" viewBox="0 0 35 35"><path fill="#4d75a5" d="M17.51 0c9.61 0 17.4 7.74 17.4 17.29 0 9.55-7.79 17.29-17.4 17.29S.11 26.84.11 17.28C.1 7.75 7.9 0 17.5 0z"/><path fill="#fff" d="M28.14 23.18c-1.17-1.4-2.4-2.6-3.59-3.98-.61-.73-.4-.8-.06-1.32 1.05-1.59 2.12-3.3 3.12-4.88.44-.7.3-.98-.4-.98h-3.12c-.83 0-.92-.13-1.47.92-1.01 1.9-2.22 4.35-3.87 4.5 0-1.74.02-3.35.03-5.09 0-.47-.09-.92-.92-.92h-3.24c-.94 0-1.45.46-1.42.74.06.55 1.07-.13 1.07 1.38v3.88c-1.23.2-2.82-2.72-3.97-4.7-.32-.54-.3-.71-1.34-.71H6.15c-.5 0-.84.16-.47.87 1.85 3.64 6.05 11.07 9.77 11.07h2.62c.64 0 .81-.3.81-.72v-2.2c1.4.14 2.34 1.18 3.34 2.23.64.68.84.7 1.37.7l3.98-.01c.74 0 .83-.47.57-.78z"/></svg>