<svg xmlns="http://www.w3.org/2000/svg" width="36" height="35" viewBox="0 0 36 35"><path fill="#cc3433" d="M18.23 0c9.62 0 17.4 7.74 17.4 17.29 0 9.55-7.78 17.29-17.4 17.29-9.61 0-17.4-7.74-17.4-17.3C.83 7.75 8.62 0 18.23 0z"/><path fill="#fff" d="M28.42 16.36v1.46H25.7v2.7h-1.47v-2.7h-2.71v-1.46h2.71v-2.7h1.47v2.7zm-9.26 8.89c-.77.65-1.86.84-2.85.84-1.08 0-2.27-.2-3.16-.86a2.5 2.5 0 0 1-1.09-1.9c-.03-.95.53-1.75 1.3-2.26 1.16-.77 2.72-.9 4.07-.79l.48.4c.74.6 1.98 1.57 2.1 2.58l.02.19c0 .7-.33 1.34-.87 1.8zm-4.7-15.58c.42-.26.88-.38 1.37-.31 1.2.17 2.13 1.38 2.56 2.42.41 1 .6 2.33 0 3.3-.22.37-.54.65-.93.84-3.28 1.58-5.59-4.68-3-6.25zm5.72 9.8c-.38-.33-.78-.62-1.18-.94-.22-.18-.59-.46-.73-.72-.38-.7-.02-1.15.53-1.62 1.3-1.12 2.08-1.75 2.08-3.62 0-1.23-.58-2.39-1.53-3.16h1.41l1.84-.98h-6.08v.02a6.52 6.52 0 0 0-1.89.26 4.79 4.79 0 0 0-3.13 2.56c-.51 1.1-.56 2.4-.05 3.5.82 1.79 2.65 2.39 4.5 2.2-.62.96-.1 1.81.63 2.55a8.07 8.07 0 0 0-5.04 1.32c-1 .73-1.8 1.88-1.67 3.16a3 3 0 0 0 1.56 2.22c1.25.75 2.9.95 4.33.95 1.31 0 2.64-.3 3.75-1a4.72 4.72 0 0 0 2.05-2.52c.13-.4.19-.8.19-1.2 0-1.24-.68-2.18-1.57-2.97z"/></svg>