<svg xmlns="http://www.w3.org/2000/svg" width="19" height="20" viewBox="0 0 19 20"><path fill="#6eb216" d="M9 19a9 9 0 1 1 .01-18 9 9 0 0 1 0 18zm-.75-4.34h1.74V12.9H8.25zm3.23-8.45c-.6-.52-1.4-.78-2.4-.78-.96 0-1.73.26-2.31.78-.59.51-.9 1.15-.95 1.89l1.6.2c.12-.52.32-.9.62-1.16.3-.25.67-.38 1.11-.38.46 0 .83.12 1.1.36a1.14 1.14 0 0 1 .18 1.55c-.1.13-.4.4-.91.82-.52.42-.86.79-1.03 1.12-.17.33-.25.76-.25 1.27v.42h1.6c-.02-.48.02-.81.11-1 .1-.19.32-.44.7-.74a7.19 7.19 0 0 0 1.39-1.41c.22-.35.33-.71.33-1.1 0-.7-.3-1.31-.9-1.84z"/></svg>