<svg xmlns="http://www.w3.org/2000/svg" width="22" height="20" viewBox="0 0 22 20"><path fill="#fff" d="M21.5 18.34l-.45.5c-.35.36-.92.43-1.26.13l-1.78-1.54-.08-.09-.06-.04-1.33-1.15-.07-.05-1.78-1.54a.77.77 0 0 1-.1-.1l-.67-.6a8.28 8.28 0 0 1-4.87 1.76C4.6 15.76.89 12.42.77 8.16.66 3.89 4.17.32 8.62.19c4.45-.14 8.15 3.2 8.27 7.46.04 1.6-.42 3.1-1.26 4.36l1.1.96.1.1.92.8.07.05 1.78 1.54.08.09.06.04 1.78 1.54c.34.3.33.84-.02 1.21zM8.64 2.6a5.47 5.47 0 0 0-5.41 5.5 5.42 5.42 0 0 0 5.7 5.14 5.47 5.47 0 0 0 5.4-5.5 5.42 5.42 0 0 0-5.7-5.14z"/></svg>