<svg xmlns="http://www.w3.org/2000/svg" width="36" height="35" viewBox="0 0 36 35"><path fill="#5fa8dd" d="M18.38 0C28 0 35.8 7.74 35.8 17.29c0 9.55-7.8 17.29-17.4 17.29-9.62 0-17.41-7.74-17.41-17.3C.98 7.75 8.77 0 18.38 0z"/><path fill="#fff" d="M29.51 10.54c-.76.37-1.51.61-2.28.74a4.12 4.12 0 0 0 1.68-2.43c-.83.53-1.68.88-2.55 1.08-.8-.95-2-1.53-3.64-1.52-4.72 0-4.18 5.7-4.18 5.7-4.24-.5-7.21-2.32-9.28-5.07-.97 2.35-.6 4.5 1.38 6.38-.74.03-1.39-.22-2-.59.17 2.21 1.16 3.89 3.56 4.66-.57.23-1.22.25-1.93.15.64 1.92 1.99 3.05 4.2 3.21a8.64 8.64 0 0 1-6.52 1.99c6.44 4.08 12.59 1.73 15.99-2.1 2.62-2.95 3.93-6.92 3.56-9.93a4.17 4.17 0 0 0 2.01-2.27z"/></svg>