<svg xmlns="http://www.w3.org/2000/svg" width="19" height="18" viewBox="0 0 19 18"><path fill="#b4b3b3" d="M8.86 9.63l1.78 1.27.1.1.63.45c.29.2.36.58.17.85-.2.27-.6.32-.88.12l-1.83-1.3-.04-.06-.69-.49a.66.66 0 0 1-.18-.2.63.63 0 0 1-.28-.51V7.64l.02-.12-.02-.12V5.18c0-.35.27-.63.6-.63.34 0 .62.28.62.63V7.4l-.03.12.03.12zm9.95-1.91a.67.67 0 0 0-.93.05l-.66.67A8.6 8.6 0 0 0 8.65 1 8.58 8.58 0 0 0 0 9.5C0 14.2 3.87 18 8.65 18a8.67 8.67 0 0 0 6.4-2.8l.48-.5a.58.58 0 0 0-.01-.84.6.6 0 0 0-.85.02l-.29.3c-.08.1-.17.18-.26.27l-.06.07a7.48 7.48 0 0 1-5.4 2.29 7.39 7.39 0 0 1-7.45-7.33 7.39 7.39 0 0 1 7.45-7.32A7.38 7.38 0 0 1 16 8.5l-.71-.73a.67.67 0 0 0-.93-.05c-.26.24-.25.64 0 .9l1.64 1.7c.16.15.38.21.58.19.2.02.43-.04.58-.2l1.64-1.68a.63.63 0 0 0 0-.91z"/></svg>