<svg xmlns="http://www.w3.org/2000/svg" width="144" height="41" viewBox="0 0 144 41"><path fill="#444" d="M15.88 30.97v-1.4l-.01-.2V13.12l.01-.14-.01-.14v-2.46l.01-.14-.01-.15V8.53c0-.48-.49-.88-1.09-.88l-1.1-.01-.28-.02-.08.02-1.58-.02c-.6-.01-1.08.38-1.08.87v11.56l-.13.42-.51.3-.73.22-1.45.1-1.46-.14-.56-.22-.47-.3v-.23-5.17l.01-6.6c0-.49-.48-.89-1.08-.89-1.02 0-2.03 0-3.05.03-.27 0-.52.09-.71.23a.75.75 0 0 0-.47.7L.04 25.76l-.04.5v1.49l.04 1.06a79605.46 79605.46 0 0 0 .01 9.8l.05.14a.8.8 0 0 0 .7.49 16.13 16.13 0 0 0 1.22 0h2.23c.6 0 1.1-.4 1.1-.88v-7.22V26l.18-.21.28-.1c.57-.06 1.13-.1 1.68-.14l.18.02.98-.07h.67l.4.02.73.22.2.3v12.32c0 .27.15.51.4.68v.03l.06.01c.18.1.4.16.63.16h3.04c.6 0 1.09-.4 1.09-.88v-.73l.01-.08-.01-.21V31.1zm20.2 5.05l-.07-.1-4.16-26.86c-.07-.45-.3-.82-.62-1.06a.85.85 0 0 0-.49-.36 6.47 6.47 0 0 0-1.87-.23l-.6.03c-.82.04-1.62.16-2.44.22-.44.03-.97.3-1.16.84a6.72 6.72 0 0 0-.25 1.02 11798.26 11798.26 0 0 1-3.53 21.74l-1.33 7.85v.1c0 .03 0 .06.02.1a.4.4 0 0 0 .12.15.6.6 0 0 0 .2.1.8.8 0 0 0 .26.03l2.48-.04a1 1 0 0 0 .2-.03 1.73 1.73 0 0 0 1.22-.17 1 1 0 0 0 .52-.69l.88-5.55c.45-.36 1.65-.64 3.6-.68l.2-.01.28.13c.27.16.49.35.66.56l.75 2.8c.09.9.2 1.75.42 2.49a.81.81 0 0 0 .36.45l.03.05h.04c.12.12.27.19.44.2a4019.32 4019.32 0 0 0 .82.03l1.38.07.19.05.64.04.6-.22.43-.3.08-.7-.25-1.44-.04-.2v-.02zm-6.55-9.01l.12.48.01.07v.4l-.21.13-.64.1-1.54-.05-.77-.18-.14-.44 1.6-10.07.04-.03v-.08l.12.08h.2l.34 2.16.02.5.1.24.48 2.98.02.18.05.29a19939 19939 0 0 0 .06.5l.01.22v.1l.01.06v.06l.16 2.1zm-.3-13.42h.22v.22h-.21zm26.11-3.14l.04-1.4-.04-.56-.1-.3a.82.82 0 0 0-.1-.3h-.01a.93.93 0 0 0-.8-.44h-3.3a.9.9 0 0 0-.89.63l-.02.02v.07l-.01.14v24.24l-.05.22-.1.5h-.05l-.17.75-.17.26-.6.35-1.33.35-1.33-.26-.48-.27c-.1-.07-.18-.15-.26-.23l-.46-.94-.07-.56a.81.81 0 0 0 .02-.17V16.74l.01-.1-.01-.18V9.19l.01-.17.04-.7-.06-.1a.9.9 0 0 0-.9-.77H40.6c-.47 0-.86.36-.86.8v1.6l-.03.25.03.48v5.46l-.03.2.03.5v7.89l-.03.24.03.25v1.31l-.03.49.03.5v4.99a1.3 1.3 0 0 0-.01.17v.05l.01.2v.13c0 .12.03.24.09.34.05.32.17.97.38 1.67a6.5 6.5 0 0 0 1.19 2.12 4.61 4.61 0 0 0 .78.76l.06.09.04.03c.47.49.9.91.96.94.38.19 1.01.4 1.77.56v.04l.08-.02.4.08.04.02.04-.01c1.4.24 3.1.29 4.46-.22a.7.7 0 0 0 .25-.17l.77-.2.6-.27.4-.27.06.01a.3.3 0 0 0 .07 0 1.52 1.52 0 0 0 .43-.21l.15.07v.6c0 .59.33 1.05.77 1.06l1.1.02c.55.01 1.1-.47 1.06-1.1-.08-1.78-.15-3.67-.26-5.5.03-.75.01-1.48-.01-2.05.07-6.87-.07-13.88-.1-20.81zm-13.18 3.97v.21h-.21v-.21zm30.87 23.2c.48-.3.9-.77 1.26-1.31l.14-.11-.02-.08c.15-.23.29-.47.41-.71l.04-.04v-.03l.16-.34.05-.02v-.1c.32-.7.51-1.35.53-1.67a77.93 77.93 0 0 0 .56-8.63v-.33-.04-.02-.01-.01-.08-.17a46.86 46.86 0 0 0-.01-1.93c-.06-1.9-.16-3.75-.38-5.61.04-.73-.07-1.59-.23-2.44v-.01c-.11-.56-.24-1.11-.37-1.62-.1-.36-.24-.78-.37-.89a4.88 4.88 0 0 0-.49-.96v-.05l-.04-.02a4.83 4.83 0 0 0-.03-.06c0-.02 0-.04-.02-.07a.68.68 0 0 0-.07-.14 2.3 2.3 0 0 0-.3-.34 12.3 12.3 0 0 0-2.39-1.72 7.53 7.53 0 0 0-2.4-.44c-.62-.04-1.33-.06-2.06-.06-.74 0-1.5.01-2.2.03l-1 .06-.37-.03h-2.48l-.51.48-.06.2a.7.7 0 0 0-.17.45v.97c-.04 1.3-.06 2.58-.08 3.86l-.04.4-.04 1.3.05.83a743.15 743.15 0 0 0-.02 4v3.56c0 4.73.04 9.4.02 13.92 0 .22.01.42.04.56a.65.65 0 0 0 .07.19c.01.18.1.34.22.46v.1l.3.06.03.01.06.01.21.14v-.1l.69.1.68-.1.99.14.67-.05c3.86.36 7.4.02 8.82-1.32a.3.3 0 0 0 .07-.12l.08-.04zm-6.26-25.56l.69-.08 1.32.3c.03 0 .05.02.07.03l.36.36.34.18c.22.21.42.47.6.76l.04.24h.09l.15.4.06 2.84-.02.27-.05 2.7-.01.1.01.16a99.83 99.83 0 0 0 .06 4.64c-.06 2.27-.17 4.73-.37 7.43 0 .26-.07.65-.15 1.11a19.63 19.63 0 0 0-.05.32l-.19.16V34c-.41.31-.86.51-1.34.62h-.24l-.01.05a5.6 5.6 0 0 1-2.4-.2.32.32 0 0 0-.2-.03l-.26-.65v-1.3l.09-1.44-.02-.14c0-.55 0-1.1-.02-1.64l.04-.14-.09-1.3-.04-1.44v-3.26c.03-.14.04-.26.04-.34.03-.83.04-1.53.04-2.17l.05-.42-.06-.29-.02-.94c0-.09-.03-.25-.05-.43v-4.57l.17-1.33.34-.2c.21-.14.43-.26.66-.34l.24-.05zm29.15-1.6l.04-1.4-.04-.57-.11-.3a.82.82 0 0 0-.1-.3h-.01a.93.93 0 0 0-.8-.44h-3.3a.9.9 0 0 0-.89.63l-.02.02v24.45c-.03.07-.04.15-.06.22l-.1.5h-.05l-.17.75-.17.26-.6.35-1.33.35-1.32-.26-.49-.27c-.09-.07-.18-.15-.25-.23l-.46-.94-.08-.56a.81.81 0 0 0 .02-.17v-15.8l.01-.11V9.02l.05-.7-.06-.1a.9.9 0 0 0-.92-.77h-3.53c-.47 0-.86.36-.86.8v1.61l-.03.24.03.46v5.5l-.03.19.03.48v7.9l-.03.24.03.24v1.34l-.03.47.03.48v5.01a1.01 1.01 0 0 0 0 .12V32.96c0 .12.04.24.1.35.05.32.16.96.37 1.66a6.5 6.5 0 0 0 1.19 2.12 4.61 4.61 0 0 0 .78.76l.06.09.05.03c.46.49.9.91.95.94.39.19 1.02.4 1.77.56l.01.04.07-.02.41.08.04.02.03-.01c1.4.24 3.1.29 4.46-.22a.7.7 0 0 0 .25-.17l.78-.2.6-.27.39-.27.06.01a.3.3 0 0 0 .07 0 1.52 1.52 0 0 0 .43-.21l.15.07v.6c0 .59.33 1.05.77 1.06l1.1.02c.55.01 1.1-.47 1.07-1.1-.09-1.78-.16-3.67-.27-5.5.03-.74.01-1.48-.01-2.05.07-6.87-.07-13.88-.09-20.81zm-13.19 3.96v.21h-.21v-.21zm20.38 24.7l.1-.12a.75.75 0 0 0 .28-.34l.04-.07.01-.11.05-.08a2 2 0 0 0 .24-.76l.01-.14c.05-.57.06-1.2.03-1.8a3.04 3.04 0 0 0-.07-.4l-.05-.45-.22-.61-.17-.05-.17-.26-1.2-.22-.06.02a2.64 2.64 0 0 0-1.4.1l-.08-.03-.81.35-.34 1.26-.09 1.53.04.74.1.28a2.44 2.44 0 0 0 .05.39c.04.16.1.3.2.4l.04.15.09.13h.17a.84.84 0 0 0 .48.09 128.35 128.35 0 0 0 2.37.04c.08 0 .16-.02.23-.05h.04zm15.4-12.94l.2-.1a5.66 5.66 0 0 0 1.4-.6l.11-.04.08-.08c.71-.49 1.1-.98 1.21-1.08.33-.36.63-.96.87-1.72h.03l.05-.27c.12-.4.22-.82.3-1.28l.08-.19.03-.42a21.18 21.18 0 0 0 .22-4.63c-.04-.7-.12-1.4-.23-2.07a9.43 9.43 0 0 0-1.2-3.44 7.84 7.84 0 0 0-1.51-1.44 4.83 4.83 0 0 0-1.92-.88l-.02-.01h-.06a10.79 10.79 0 0 0-2.18-.32 21.82 21.82 0 0 0-2.12-.05 34.24 34.24 0 0 0-2.2.1 67.53 67.53 0 0 0-1.88.03l-.33-.02-1.33.08-.06.04c-.42.04-.76.38-.76.77v9.89l-.03.2.03.33v3.37l-.03.47.03.98v14.56c0 .2.09.37.23.5a.9.9 0 0 0 .56.23l1.74.12a20.56 20.56 0 0 0 1.49.03h.33l.03-.01c.49-.02.9-.42.9-.82l.06-11.41.1-.21.26-.22.64-.13 1.37.04 1.37-.04 1.33-.17.73-.1zm-3.16-3.92l-1.63.13-.73-.18-.36-.56a325.51 325.51 0 0 0-.07-6.22l-.05-2.43.43-.76.19-.1 1.19-.16.7-.08c.26.04.52.1.77.2l.2.1h.05c.17.08.32.17.45.28a4.98 4.98 0 0 1 .5.87l.05.12.05.03c.43.97.75 2.22.82 3.52l-.04.27.05.2a6.72 6.72 0 0 1-1.4 4.47zm2.35-12.11h.21v.22h-.21zm-6.85 20.21h-.21v-.22h.21zm26.02 2.83l.05-1.44v-1.39l-.04-.67v-2.37c.12-.95.3-1.84.5-2.6.05-.1.1-.2.13-.3l.38-1.07.05-.05.01-.14c1-2.83 1.9-5.23 2.54-7.14.34-1 .58-1.9.86-2.88l.1-.07.26-1.17A41.34 41.34 0 0 1 143 8.26a1 1 0 0 0 .01-.1v-.05-.05a.56.56 0 0 0-.13-.33.64.64 0 0 0-.32-.2.96.96 0 0 0-.22-.03h-.26a19.76 19.76 0 0 1-3.53.14.94.94 0 0 0-.33.13.76.76 0 0 0-.32.42 44 44 0 0 1-.29 1l-.04.13v.03l-.4 1.25-.03.03-.03.17a44.5 44.5 0 0 0-1.55 6.4l-.09-.04-.38 1.44-.43.48h-.26l-.26-.26-.12-.3-.1-.1-.12-.6v-.18l-.08-.22-.47-2.26c-.55-2.5-1.27-4.4-1.77-6.56a.76.76 0 0 0-.32-.44.92.92 0 0 0-.32-.13l-.03-.1-.56-.13-1.37-.13-1.45.04-.49.04a35.54 35.54 0 0 1-.38-.04 1.56 1.56 0 0 0-.26.03.7.7 0 0 0-.38.18.48.48 0 0 0-.13.34v.11c0 .04.02.07.03.11a32.38 32.38 0 0 1 1.73 5.2l.05.26.01.03c.25.98.46 1.88.8 2.86a93.66 93.66 0 0 0 1.75 4.84l-.04.07.11.1.05.14.06.2h.02l.1.27v.11l.05.01.73 1.9.2 1.05.06.1c.13 1.1.3 2.2.35 3.24 0 .08.02.15.04.22l-.01.55-.05.73v.91l.01.02-.02 1.09-.03-.02-.04 1.48.04 1.49.04 1.39.03.43.04 1.17c0 .1.03.18.07.25l.03.37.56.22 1.41.09h.4c.52.05 1.03.09 1.48.06l.14.02.02-.03.3-.05c.38-.07.6-.53.6-.92-.02-1.65-.03-3.32-.03-5zM43.7 1.03a.4.4 0 0 0-.26-.01.63.63 0 0 0-.24.14 1.1 1.1 0 0 0-.32.6c-.06.28-.1.54-.1.79l-.01.18v.18l.01.34c.03.34.45.74.9.86a13.56 13.56 0 0 0 3.84.36c.42-.01.82-.04 1.21-.08 1.57-.16 2.77-.37 3.81-.4a.65.65 0 0 0 .38-.16.7.7 0 0 0 .24-.4v-.04a5.2 5.2 0 0 0 .04-.57V2.6a7.64 7.64 0 0 0-.11-1.06l-.07-.16a.82.82 0 0 0-.19-.25.6.6 0 0 0-.24-.13.5.5 0 0 0-.27.01c-2.89.74-5.93.8-8.62 0z"/></svg>