<svg xmlns="http://www.w3.org/2000/svg" width="16" height="16" viewBox="0 0 16 16"><defs><clipPath id="a"><path fill="#fff" d="M710 773v-16h16v16zm1-8a7 7 0 1 0 14 0 7 7 0 0 0-14 0z"/></clipPath></defs><path fill="#fff" d="M8 1a7 7 0 1 1 0 14A7 7 0 0 1 8 1z"/><path fill="none" stroke="#2893e5" stroke-linecap="round" stroke-linejoin="round" stroke-miterlimit="50" stroke-width="2" d="M718 758a7 7 0 1 1 0 14 7 7 0 0 1 0-14z" clip-path="url(&quot;#a&quot;)" transform="translate(-710 -757)"/><path fill="#2893e5" d="M5.35 4.69l5.97 5.95-.66.67-5.97-5.96z"/><path fill="#2893e5" d="M11.31 5.34l-5.95 5.97-.66-.66 5.95-5.97z"/></svg>