<svg xmlns="http://www.w3.org/2000/svg" width="28" height="32" viewBox="0 0 28 32"><path fill="#dadada" d="M23.63 15.78v.8c-.06.79-.05 1.64.05 2.52.27 2.62 1.14 4.74 2.14 5.44.52.51 1.13.92 1.81 1.2v.04c.1 0 .2.1.28.24.06.1.08.2.08.28H28v2.14H0V26.3h.01c0-.08.02-.18.08-.28.08-.14.19-.24.28-.24v-.03a5.66 5.66 0 0 0 1.89-1.26c.39-.31.75-.83 1.07-1.51.14-.27.25-.55.34-.83a14.65 14.65 0 0 0 .7-5.56v-.8a22.85 22.85 0 0 1-.03-1.92c.01-1.07.1-2.14.2-2.61.13-.92.34-1.7.61-2.19C6.03 6.43 9 4.4 12.7 4A2.23 2.23 0 0 1 14 0a2.23 2.23 0 1 1 1.31 4c3.69.4 6.66 2.43 7.54 5.07.27.49.48 1.26.6 2.19.12.47.2 1.54.21 2.6a27.94 27.94 0 0 1-.04 1.92zM10.29 29.33c.54 1.56 2 2.67 3.71 2.67a3.94 3.94 0 0 0 3.71-2.67z"/></svg>