<svg xmlns="http://www.w3.org/2000/svg" width="29" height="32" viewBox="0 0 29 32"><path fill="#454545" d="M24.63 15.78v.8c-.06.79-.05 1.64.05 2.52.27 2.62 1.14 4.74 2.14 5.44.52.51 1.13.92 1.82 1.2v.04c.08 0 .2.1.27.24.05.1.08.2.08.28H29v2.14H1V26.3h.01c0-.08.03-.18.08-.28.08-.14.19-.24.27-.24v-.03a5.65 5.65 0 0 0 1.9-1.26c.39-.31.75-.83 1.07-1.51.14-.27.25-.55.34-.83a14.74 14.74 0 0 0 .7-5.56v-.8a24.53 24.53 0 0 1-.03-1.92c.01-1.07.1-2.14.2-2.61.13-.92.34-1.7.61-2.19C7.03 6.43 10 4.4 13.7 4A2.23 2.23 0 0 1 15 0a2.23 2.23 0 1 1 1.31 4c3.69.4 6.66 2.43 7.54 5.07.27.49.48 1.26.6 2.19.12.47.2 1.54.21 2.6a29.06 29.06 0 0 1-.04 1.92zM11.29 29.33c.54 1.56 2 2.67 3.71 2.67a3.94 3.94 0 0 0 3.71-2.67z"/></svg>