<svg xmlns="http://www.w3.org/2000/svg" width="66" height="66" viewBox="0 0 66 66"><defs><clipPath id="a"><path fill="#fff" d="M114.5 37.99a32.5 32.5 0 1 1 0 65 32.5 32.5 0 0 1 0-65z"/></clipPath></defs><path fill="#f1f1f1" d="M33.5.99a32.5 32.5 0 1 1 0 65 32.5 32.5 0 0 1 0-65z"/><path fill="none" stroke="#3e3e3e" stroke-miterlimit="50" stroke-width=".2" d="M114.5 37.99a32.5 32.5 0 1 1 0 65 32.5 32.5 0 0 1 0-65z" clip-path="url(&quot;#a&quot;)" transform="translate(-81 -37)"/><path fill="#b4b3b3" d="M35.23 40.6c.03-1.48.13-2.55.3-3.2.18-.66.46-1.24.83-1.75.37-.5 1.15-1.29 2.35-2.35 1.8-1.59 3-2.94 3.61-4.04.62-1.11.93-2.32.93-3.63 0-2.27-.88-4.2-2.63-5.8-1.75-1.6-4.1-2.4-7.03-2.4-2.78 0-5.01.74-6.7 2.23-1.69 1.49-2.7 3.63-3.04 6.44l3.79.45c.33-2.1 1.02-3.63 2.07-4.62a5.54 5.54 0 0 1 3.94-1.47c1.62 0 3 .54 4.12 1.63a5.12 5.12 0 0 1 1.68 3.78c0 .8-.19 1.53-.57 2.2-.39.67-1.22 1.57-2.5 2.7a27.8 27.8 0 0 0-2.65 2.57c-.67.8-1.16 1.6-1.46 2.4-.4 1.05-.61 2.3-.61 3.75 0 .25 0 .61.02 1.1zM31.45 48v-4.2h4.2V48z"/></svg>