<svg xmlns="http://www.w3.org/2000/svg" width="18" height="19" viewBox="0 0 18 19"><path fill="#fff" d="M8.5 18a8.5 8.5 0 1 1 .01-17 8.5 8.5 0 0 1 0 17zm-.63-4.62h1.46v-1.46H7.87zm2.7-7.03a2.9 2.9 0 0 0-2-.66c-.8 0-1.44.22-1.93.65-.49.43-.75.96-.8 1.58l1.35.16c.09-.43.26-.75.51-.96.25-.21.56-.32.93-.32.38 0 .69.1.91.3a.94.94 0 0 1 .15 1.3c-.08.1-.33.33-.76.67-.43.35-.7.66-.85.94-.14.28-.21.63-.21 1.06v.35H9.2c0-.4.03-.68.1-.84.08-.15.27-.36.58-.62.6-.5.98-.88 1.16-1.17.18-.29.28-.6.28-.91 0-.59-.25-1.1-.75-1.53z"/></svg>