<svg xmlns="http://www.w3.org/2000/svg" width="22" height="39" viewBox="0 0 22 39"><defs><clipPath id="a"><path fill="#fff" d="M137.59 2328.51l-17.58 16.74-.06-.06-1.9 1.92 1.84 1.97.07-.06 17.13 17.21 1.9-1.92-17.08-17.15 17.52-16.68z"/></clipPath></defs><path fill="#464646" d="M19.59.51L2.01 17.25l-.06-.06-1.9 1.92 1.84 1.97.07-.06 17.13 17.21 1.9-1.92L3.9 19.16 21.43 2.48z"/><path fill="none" stroke="#3e3e3e" stroke-miterlimit="50" stroke-width=".2" d="M137.59 2328.51l-17.58 16.74-.06-.06-1.9 1.92 1.84 1.97.07-.06 17.13 17.21 1.9-1.92-17.08-17.15 17.52-16.68z" clip-path="url(&quot;#a&quot;)" transform="translate(-118 -2328)"/></svg>