<svg xmlns="http://www.w3.org/2000/svg" width="22" height="39" viewBox="0 0 22 39"><defs><clipPath id="a"><path fill="#fff" d="M1398.41 2328.51l17.58 16.74.06-.06 1.9 1.92-1.85 1.97-.06-.05-17.13 17.2-1.89-1.92 17.07-17.15-17.52-16.68z"/></clipPath></defs><path fill="#464646" d="M2.41.51l17.58 16.74.06-.06 1.9 1.92-1.85 1.97-.06-.05-17.13 17.2-1.89-1.92 17.07-17.15L.57 2.48z"/><path fill="none" stroke="#3e3e3e" stroke-miterlimit="50" stroke-width=".2" d="M1398.41 2328.51l17.58 16.74.06-.06 1.9 1.92-1.85 1.97-.06-.05-17.13 17.2-1.89-1.92 17.07-17.15-17.52-16.68z" clip-path="url(&quot;#a&quot;)" transform="translate(-1396 -2328)"/></svg>