<svg xmlns="http://www.w3.org/2000/svg" width="85.87" height="15" viewBox="0 0 85.87 15"><path fill="#f1ad1d" d="M7.02.5l2.32 4.4 4.7.95-3.27 3.67.59 4.98-4.34-2.13-4.34 2.13.6-4.98L0 5.85l4.7-.95L7.03.5M24.76.5l2.31 4.4 4.71.95-3.28 3.67.6 4.98-4.34-2.13-4.34 2.13.6-4.98-3.28-3.67 4.7-.95L24.77.5M42.5.5l2.31 4.4 4.71.95-3.28 3.67.6 4.98-4.34-2.13-4.34 2.13.6-4.98-3.28-3.67 4.7-.95L42.5.5"/><path fill="#fff" d="M60.56.76l2.21 4.26 4.49.92-3.13 3.55.57 4.82-4.14-2.06-4.13 2.06.56-4.82-3.12-3.55 4.49-.92 2.2-4.26"/><path fill="none" stroke="#f1ad1d" stroke-miterlimit="50" stroke-width=".92" d="M60.56.76l2.21 4.26 4.49.92-3.13 3.55.57 4.82-4.14-2.06-4.13 2.06.56-4.82-3.12-3.55 4.49-.92 2.2-4.26"/><path fill="#f1ad1d" d="M60.6 12.17l-4.13 2.08.51-4.23v-.61l-.18-.18v.03l-.38-.42v-.01l-2.5-2.85 3.79-.75v-.06h.37v-.09h.27l2.14-4.07v.04h.07v11.08h-.02z"/><path fill="#fff" d="M78.3.76l2.21 4.26 4.49.92-3.13 3.55.57 4.82-4.14-2.06-4.14 2.06.57-4.82-3.12-3.55 4.49-.92L78.3.76"/><path fill="none" stroke="#f1ad1d" stroke-miterlimit="50" stroke-width=".92" d="M78.3.76l2.21 4.26 4.49.92-3.13 3.55.57 4.82-4.14-2.06-4.14 2.06.57-4.82-3.12-3.55 4.49-.92L78.3.76"/></svg>